<?xml version="1.0" standalone="no"?>
<!DOCTYPE svg PUBLIC "-//W3C//DTD SVG 20010904//EN"
 "http://www.w3.org/TR/2001/REC-SVG-20010904/DTD/svg10.dtd">
<svg version="1.0" xmlns="http://www.w3.org/2000/svg"
 width="630.000000pt" height="630.000000pt" viewBox="0 0 630.000000 630.000000"
 preserveAspectRatio="xMidYMid meet">
<metadata>
Created by potrace 1.11, written by Peter Selinger 2001-2013
</metadata>
<g transform="translate(0.000000,630.000000) scale(0.100000,-0.100000)"
fill="#000000" stroke="none">
<path d="M3080 6167 c-53 -32 -1101 -642 -1137 -662 -94 -53 -146 -83 -193
-110 -30 -18 -109 -64 -175 -102 -66 -39 -201 -117 -300 -175 -99 -58 -310
-180 -470 -273 -159 -92 -292 -170 -294 -172 -5 -4 -1 -2614 4 -2883 3 -146 5
-166 22 -178 15 -11 787 -457 953 -550 25 -14 162 -93 305 -175 143 -82 280
-161 305 -175 25 -13 81 -46 125 -72 44 -25 87 -49 95 -53 8 -4 31 -17 50 -28
19 -12 114 -66 210 -122 96 -55 264 -151 372 -214 109 -62 201 -113 204 -113
6 0 145 78 257 144 18 10 91 52 162 94 72 41 141 82 155 91 14 9 34 21 45 26
11 6 146 85 300 175 154 89 294 171 310 180 38 22 183 106 595 345 179 104
334 194 345 200 11 6 46 26 78 45 32 19 70 42 85 50 15 8 89 50 165 94 l137
78 1 47 c0 25 0 118 0 206 -1 88 -3 753 -4 1478 -2 798 -7 1321 -13 1326 -5 4
-106 64 -224 131 -118 68 -379 217 -579 332 -199 114 -366 208 -369 208 -3 0
-13 6 -21 14 -9 7 -41 27 -71 43 -30 17 -190 108 -355 203 -165 95 -320 184
-345 198 -25 14 -101 58 -170 97 -69 40 -143 83 -165 95 -22 12 -101 58 -175
101 -75 43 -142 80 -150 83 -8 3 -40 -9 -70 -27z m160 -224 c92 -51 589 -338
622 -359 21 -13 40 -24 43 -24 2 0 33 -17 67 -38 35 -21 89 -53 121 -70 32
-18 144 -82 248 -142 104 -61 191 -110 194 -110 2 0 29 -16 59 -35 30 -19 57
-35 60 -35 2 0 37 -19 78 -43 40 -24 93 -55 118 -69 239 -135 738 -423 747
-432 9 -8 13 -335 16 -1428 l4 -1418 -246 -144 c-135 -79 -262 -153 -281 -164
-19 -10 -58 -33 -86 -49 -27 -17 -70 -41 -95 -55 -24 -14 -170 -99 -324 -188
-154 -90 -296 -172 -315 -183 -19 -10 -60 -34 -90 -52 -100 -60 -223 -131
-455 -265 -126 -73 -242 -141 -257 -151 -15 -11 -30 -19 -33 -19 -3 0 -38 -20
-78 -43 -39 -24 -101 -61 -135 -81 l-64 -37 -426 245 c-235 134 -562 322 -727
416 -165 95 -313 180 -330 190 -16 9 -217 124 -445 255 -228 131 -443 254
-477 274 l-63 35 0 85 c0 47 -3 687 -6 1422 l-7 1336 204 118 c112 65 290 169
394 230 105 61 197 114 205 118 8 4 29 15 45 26 39 23 793 462 990 576 22 13
172 100 334 194 l295 170 30 -18 c17 -11 47 -28 66 -38z"/>
<path d="M3082 5696 c-34 -13 -79 -35 -100 -49 -20 -14 -71 -44 -112 -67 -64
-36 -167 -96 -295 -170 -270 -155 -379 -218 -425 -243 -30 -16 -66 -37 -80
-46 -14 -8 -34 -21 -45 -27 -11 -6 -76 -44 -145 -84 -69 -40 -138 -81 -155
-90 -16 -9 -73 -42 -125 -72 -52 -30 -192 -110 -310 -178 -374 -215 -361 -190
-360 -664 0 -171 2 -311 4 -313 2 -3 39 24 82 59 173 140 402 290 834 548 358
213 519 285 840 374 143 39 384 70 540 69 584 -4 1002 -242 1228 -699 44 -88
93 -219 107 -282 3 -12 7 -31 10 -42 9 -37 15 -65 20 -95 3 -16 7 -41 10 -55
8 -42 14 -102 21 -180 7 -80 7 -458 0 -469 -2 -3 -7 -36 -10 -73 -4 -37 -9
-77 -11 -89 -3 -13 -7 -41 -11 -64 -3 -22 -19 -89 -34 -150 -188 -723 -741
-1095 -1535 -1032 -99 8 -149 14 -180 21 -11 3 -42 8 -70 11 -137 18 -483 132
-677 224 l-66 32 0 320 c0 312 0 321 -21 342 l-21 23 21 21 c21 20 21 26 21
672 0 359 -2 654 -5 657 -10 10 -360 -176 -548 -291 -113 -70 -482 -315 -523
-348 l-28 -23 0 -591 c0 -419 3 -605 11 -639 16 -65 69 -136 134 -178 45 -29
281 -166 427 -248 25 -14 101 -58 170 -98 69 -40 271 -157 450 -260 179 -103
360 -208 403 -234 43 -25 81 -46 83 -46 3 0 30 -16 60 -35 30 -19 56 -35 58
-35 4 0 216 -122 246 -141 8 -5 44 -24 80 -42 56 -28 75 -32 140 -31 53 0 88
6 120 21 25 11 259 144 520 295 261 151 549 318 640 370 91 52 239 138 330
191 91 52 248 143 350 202 102 58 195 116 208 128 13 12 38 46 55 77 l32 55 3
1190 c2 894 0 1201 -9 1235 -16 62 -45 109 -89 147 -37 33 -324 203 -341 203
-5 0 -9 5 -9 10 0 6 -4 10 -10 10 -5 0 -73 37 -152 83 -79 46 -224 130 -323
187 -99 57 -216 124 -260 150 -44 26 -188 110 -320 185 -132 76 -319 184 -416
241 -254 148 -315 165 -437 120z"/>
<path d="M2958 4235 c-2 -2 -30 -6 -63 -9 -110 -13 -260 -60 -364 -115 l-33
-18 -1 -989 0 -989 109 -37 c177 -60 257 -73 439 -73 136 1 172 4 240 24 114
32 249 100 326 164 184 153 312 421 345 722 3 28 7 61 10 75 6 34 6 287 0 330
-3 19 -8 58 -11 85 -27 216 -119 422 -253 567 -118 127 -295 220 -482 254 -36
6 -257 14 -262 9z"/>
</g>
</svg>
